<?xml version="1.0" encoding="UTF-8" standalone="no"?>
<!-- Generator: Adobe Illustrator 16.0.0, SVG Export Plug-In . SVG Version: 6.00 Build 0)  -->

<svg
   xmlns:dc="http://purl.org/dc/elements/1.1/"
   xmlns:cc="http://creativecommons.org/ns#"
   xmlns:rdf="http://www.w3.org/1999/02/22-rdf-syntax-ns#"
   xmlns:svg="http://www.w3.org/2000/svg"
   xmlns="http://www.w3.org/2000/svg"
   xmlns:sodipodi="http://sodipodi.sourceforge.net/DTD/sodipodi-0.dtd"
   xmlns:inkscape="http://www.inkscape.org/namespaces/inkscape"
   version="1.1"
   id="Calque_1"
   x="0px"
   y="0px"
   width="595.279px"
   height="841.89px"
   viewBox="0 0 595.279 841.89"
   enable-background="new 0 0 595.279 841.89"
   xml:space="preserve"
   inkscape:version="0.91 r13725"
   sodipodi:docname="dice.svg"><metadata
     id="metadata393"><rdf:RDF><cc:Work
         rdf:about=""><dc:format>image/svg+xml</dc:format><dc:type
           rdf:resource="http://purl.org/dc/dcmitype/StillImage" /></cc:Work></rdf:RDF></metadata><defs
     id="defs391" /><sodipodi:namedview
     pagecolor="#ffffff"
     bordercolor="#666666"
     borderopacity="1"
     objecttolerance="10"
     gridtolerance="10"
     guidetolerance="10"
     inkscape:pageopacity="0"
     inkscape:pageshadow="2"
     inkscape:window-width="1365"
     inkscape:window-height="748"
     id="namedview389"
     showgrid="true"
     showguides="false"
     inkscape:zoom="1.1212867"
     inkscape:cx="273.19035"
     inkscape:cy="607.87844"
     inkscape:window-x="1"
     inkscape:window-y="0"
     inkscape:window-maximized="1"
     inkscape:current-layer="Calque_1"><inkscape:grid
       type="xygrid"
       id="grid3788" /></sodipodi:namedview><rect
     x="216.14"
     y="49.445"
     stroke-miterlimit="10"
     width="144"
     height="144"
     id="rect3"
     stroke="#000000"
     fill="none" /><rect
     x="216.14"
     y="193.445"
     stroke-miterlimit="10"
     width="144"
     height="144"
     id="rect5"
     stroke="#000000"
     fill="none" /><rect
     x="216.14"
     y="337.445"
     stroke-miterlimit="10"
     width="144"
     height="144"
     id="rect7"
     stroke="#000000"
     fill="none" /><rect
     x="216.14"
     y="481.445"
     stroke-miterlimit="10"
     width="144"
     height="144"
     id="rect9"
     stroke="#000000"
     fill="none" /><rect
     x="360.14"
     y="193.445"
     stroke-miterlimit="10"
     width="144"
     height="144"
     id="rect11"
     stroke="#000000"
     fill="none" /><rect
     x="72.14"
     y="193.445"
     stroke-miterlimit="10"
     width="144"
     height="144"
     id="rect13"
     stroke="#000000"
     fill="none" /><line
     stroke-miterlimit="10"
     x1="216.14"
     y1="193.445"
     x2="198.14"
     y2="175.445"
     id="line15"
     stroke="#000000"
     fill="none" /><line
     stroke-miterlimit="10"
     x1="216.14"
     y1="49.445"
     x2="198.14"
     y2="67.445"
     id="line17"
     stroke="#000000"
     fill="none" /><line
     stroke-miterlimit="10"
     x1="198.14"
     y1="67.445"
     x2="198.14"
     y2="175.445"
     id="line19"
     stroke="#000000"
     fill="none" /><line
     stroke-miterlimit="10"
     x1="72.14"
     y1="337.445"
     x2="54.14"
     y2="319.445"
     id="line21"
     stroke="#000000"
     fill="none" /><line
     stroke-miterlimit="10"
     x1="72.14"
     y1="193.445"
     x2="54.14"
     y2="211.445"
     id="line23"
     stroke="#000000"
     fill="none" /><line
     stroke-miterlimit="10"
     x1="54.14"
     y1="211.445"
     x2="54.14"
     y2="319.445"
     id="line25"
     stroke="#000000"
     fill="none" /><line
     stroke-miterlimit="10"
     x1="216.14"
     y1="481.445"
     x2="198.14"
     y2="463.445"
     id="line27"
     stroke="#000000"
     fill="none" /><line
     stroke-miterlimit="10"
     x1="216.14"
     y1="337.445"
     x2="198.14"
     y2="355.445"
     id="line29"
     stroke="#000000"
     fill="none" /><line
     stroke-miterlimit="10"
     x1="198.14"
     y1="355.445"
     x2="198.14"
     y2="463.445"
     id="line31"
     stroke="#000000"
     fill="none" /><line
     stroke-miterlimit="10"
     x1="360.14"
     y1="49.445"
     x2="378.14"
     y2="67.445"
     id="line33"
     stroke="#000000"
     fill="none" /><line
     stroke-miterlimit="10"
     x1="360.14"
     y1="193.445"
     x2="378.14"
     y2="175.445"
     id="line35"
     stroke="#000000"
     fill="none" /><line
     stroke-miterlimit="10"
     x1="378.14"
     y1="175.445"
     x2="378.14"
     y2="67.445"
     id="line37"
     stroke="#000000"
     fill="none" /><line
     stroke-miterlimit="10"
     x1="504.14"
     y1="193.445"
     x2="522.14"
     y2="211.445"
     id="line39"
     stroke="#000000"
     fill="none" /><line
     stroke-miterlimit="10"
     x1="504.14"
     y1="337.445"
     x2="522.14"
     y2="319.445"
     id="line41"
     stroke="#000000"
     fill="none" /><line
     stroke-miterlimit="10"
     x1="522.14"
     y1="319.445"
     x2="522.14"
     y2="211.445"
     id="line43"
     stroke="#000000"
     fill="none" /><line
     stroke-miterlimit="10"
     x1="360.14"
     y1="337.445"
     x2="378.14"
     y2="355.445"
     id="line45"
     stroke="#000000"
     fill="none" /><line
     stroke-miterlimit="10"
     x1="360.14"
     y1="481.445"
     x2="378.14"
     y2="463.445"
     id="line47"
     stroke="#000000"
     fill="none" /><line
     stroke-miterlimit="10"
     x1="378.14"
     y1="463.445"
     x2="378.14"
     y2="355.445"
     id="line49"
     stroke="#000000"
     fill="none" /><g
     id="Page_1"><path
       id="Rectangle_1"
       d="M259.735,243.88H249.28v32.894h10.895V258.51l10.372,11.783l9.881-11.783v18.264h10.346   V243.88h-10.346l-9.881,12.175L259.735,243.88z M242.437,229.445h90.032c4.58,0,8.3,3.517,8.3,7.854v46.153   c0,4.337-3.716,7.854-8.3,7.854h-90.032c-4.581,0-8.297-3.516-8.297-7.854v-46.153C234.14,232.962,237.855,229.445,242.437,229.445   z M308.822,244.076h-0.104v16.889h-9.958l15.352,15.809l15.352-15.906h-10.369v-16.792H308.822z"
       fill="#010202" /></g><rect
     x="216.14"
     y="328.445"
     width="144"
     height="9"
     id="rect53"
     fill="none" /><rect
     x="225.14"
     y="75.445"
     width="126"
     height="9"
     id="rect55"
     style="fill:none" /><rect
     x="225.14"
     y="66.445"
     width="18"
     height="18"
     id="rect57"
     style="fill:none" /><text
     font-size="18"
     id="text59"
     x="225.1394"
     y="83.224098"
     style="font-size:18px;font-family:Arial-Bold"><tspan
       style="-inkscape-font-specification:'Arial Bold';font-family:Arial;font-weight:bold;font-style:normal;font-stretch:normal;font-variant:normal"
       id="tspan3468"># </tspan></text>
<rect
     x="274.14001"
     y="66.445"
     width="72"
     height="18"
     id="rect61"
     style="fill:none" /><text
     font-size="18"
     id="text63"
     x="274.1394"
     y="81.224098"
     style="font-size:18px;font-family:Arial-Bold"><tspan
       style="-inkscape-font-specification:'Arial Bold';font-family:Arial;font-weight:bold;font-style:normal;font-stretch:normal;font-variant:normal"
       id="tspan3466">Doc title</tspan></text>
<rect
     x="225.14"
     y="89.445"
     width="18"
     height="18"
     id="rect65"
     style="fill:none" /><text
     font-size="16"
     id="text67"
     x="225.1394"
     y="104.8042"
     style="font-size:16px;font-family:Arial-Bold"><tspan
       style="-inkscape-font-specification:'Arial Bold';font-family:Arial;font-weight:bold;font-style:normal;font-stretch:normal;font-variant:normal"
       id="tspan3470">## </tspan></text>
<rect
     x="274.14001"
     y="89.445"
     width="36"
     height="18"
     id="rect69"
     style="fill:none" /><text
     font-size="16"
     id="text71"
     x="274.1394"
     y="104.8042"
     style="font-size:16px;font-family:Arial-Bold"><tspan
       style="-inkscape-font-specification:'Arial Bold';font-family:Arial;font-weight:bold;font-style:normal;font-stretch:normal;font-variant:normal"
       id="tspan3464">Part</tspan></text>
<rect
     x="225.14"
     y="114.445"
     width="27"
     height="18"
     id="rect73"
     style="fill:none" /><text
     font-size="14"
     id="text75"
     x="225.1394"
     y="124.3843"
     style="font-size:14px;font-family:Arial-Bold"><tspan
       style="-inkscape-font-specification:'Arial Bold';font-family:Arial;font-weight:bold;font-style:normal;font-stretch:normal;font-variant:normal"
       id="tspan3472">###</tspan></text>
<rect
     x="274.14001"
     y="114.445"
     width="54"
     height="18"
     id="rect77"
     style="fill:none" /><text
     font-size="14"
     id="text79"
     x="274.1394"
     y="124.3843"
     style="font-size:14px;font-family:Arial-Bold"><tspan
       style="-inkscape-font-specification:'Arial Bold';font-family:Arial;font-weight:bold;font-style:normal;font-stretch:normal;font-variant:normal"
       id="tspan3462">Section</tspan></text>
<rect
     x="225.14"
     y="135.44501"
     width="27"
     height="9"
     id="rect81"
     style="fill:none" /><text
     font-size="12"
     id="text83"
     x="225.1394"
     y="143.9644"
     style="font-size:12px;font-family:Arial-Bold"><tspan
       style="-inkscape-font-specification:'Arial Bold';font-family:Arial;font-weight:bold;font-style:normal;font-stretch:normal;font-variant:normal"
       id="tspan3474">#### </tspan></text>
<rect
     x="274.14001"
     y="135.44501"
     width="63"
     height="9"
     id="rect85"
     style="fill:none" /><text
     font-size="12"
     id="text87"
     x="274.1394"
     y="143.9644"
     style="font-size:12px;font-family:Arial-Bold"><tspan
       style="-inkscape-font-specification:'Arial Bold';font-family:Arial;font-weight:bold;font-style:normal;font-stretch:normal;font-variant:normal"
       id="tspan3796">Subsection</tspan></text>
<rect
     x="225.14"
     y="153.44501"
     width="36"
     height="9"
     id="rect89"
     style="fill:none" /><text
     font-size="10"
     id="text91"
     x="225.1394"
     y="160.5444"
     style="font-size:10px;font-family:Arial-Bold"><tspan
       style="-inkscape-font-specification:'Arial Bold';font-family:Arial;font-weight:bold;font-style:normal;font-stretch:normal;font-variant:normal"
       id="tspan3476">##### </tspan></text>
<rect
     x="274.14001"
     y="153.44501"
     width="54"
     height="9"
     id="rect93"
     style="fill:none" /><text
     font-size="10"
     id="text95"
     x="274.1394"
     y="160.5444"
     style="font-size:10px;font-family:Arial-Bold"><tspan
       style="-inkscape-font-specification:'Arial Bold';font-family:Arial;font-weight:bold;font-style:normal;font-stretch:normal;font-variant:normal"
       id="tspan3792">Paragraph</tspan></text>
<rect
     x="225.14"
     y="169.44501"
     width="36"
     height="9"
     id="rect97"
     style="fill:none" /><text
     font-size="8"
     id="text99"
     x="225.1394"
     y="177.1245"
     style="font-size:8px;font-family:Arial-Bold"><tspan
       style="-inkscape-font-specification:'Arial Bold';font-family:Arial;font-weight:bold;font-style:normal;font-stretch:normal;font-variant:normal"
       id="tspan3478">####### </tspan></text>
<rect
     x="274.14001"
     y="171.44501"
     width="54"
     height="9"
     id="rect101"
     style="fill:none" /><text
     font-size="8"
     id="text103"
     x="274.1394"
     y="177.1245"
     style="font-size:8px;font-family:Arial-Bold"><tspan
       style="-inkscape-font-specification:'Arial Bold';font-family:Arial;font-weight:bold;font-style:normal;font-stretch:normal;font-variant:normal"
       id="tspan3790">Subparagraph</tspan></text>
<rect
     x="72.14"
     y="202.445"
     width="144"
     height="9"
     id="rect105"
     fill="none" /><text
     font-size="6"
     id="text109"
     style="font-size:6px;font-family:CourierNewPS-BoldMT"
     x="72.613281"
     y="205.44479"><tspan
       style="font-style:normal;font-variant:normal;font-weight:bold;font-stretch:normal;font-size:7.5px;font-family:'Courier New';-inkscape-font-specification:'Courier New Bold'"
       id="tspan3486">[Text link]</tspan></text>
<rect
     x="72.14"
     y="238.445"
     width="144"
     height="18"
     id="rect111"
     fill="none" /><text
     font-size="5"
     id="text117"
     style="font-size:5px;font-family:CourierNewPS-BoldMT"
     x="73.459724"
     y="241.6089"><tspan
       style="font-style:normal;font-variant:normal;font-weight:bold;font-stretch:normal;font-size:7.5px;font-family:'Courier New';-inkscape-font-specification:'Courier New Bold'"
       id="tspan3482">![Picture description]</tspan></text>
<text
     font-size="5"
     id="text119"
     x="72.673615"
     y="248.27777"
     style="font-size:5px;font-family:CourierNewPS-BoldMT"><tspan
       style="font-style:normal;font-variant:normal;font-weight:bold;font-stretch:normal;font-size:7.5px;font-family:'Courier New';-inkscape-font-specification:'Courier New Bold'"
       id="tspan3484">(http://imgs.xkcd.com/comics/</tspan></text>
<rect
     x="81.14"
     y="211.445"
     width="54"
     height="18"
     id="rect121"
     fill="none" /><text
     transform="matrix(1 0 0 1 81.1399 229.4448)"
     font-size="12"
     text-decoration=" underline"
     id="text123"
     font-family="'Arial-Bold'"
     fill="#4183C4"><tspan
       style="-inkscape-font-specification:Arial;font-family:Arial;font-weight:normal;font-style:normal;font-stretch:normal;font-variant:normal"
       id="tspan3488">Text link</tspan></text>
<rect
     x="360.14"
     y="211.445"
     width="144"
     height="36"
     id="rect265"
     fill="none" /><text
     id="text267"
     x="374.45432"
     y="225.4688"><tspan
       x="374.45432"
       y="225.4688"
       font-size="14"
       id="tspan269"
       style="font-style:italic;font-variant:normal;font-weight:normal;font-stretch:normal;font-size:13.75px;font-family:Arial;-inkscape-font-specification:'Arial Italic'">*I’m an italic text*</tspan></text>
<rect
     x="360.14"
     y="247.445"
     width="144"
     height="36"
     id="rect273"
     fill="none" /><text
     id="text275"
     x="368.2366"
     y="261.46881"><tspan
       x="368.2366"
       y="261.46881"
       font-size="14"
       id="tspan277"
       style="font-style:normal;font-variant:normal;font-weight:bold;font-stretch:normal;font-size:13.75px;font-family:Arial;-inkscape-font-specification:'Arial Bold'">** I’m a bold text**</tspan></text>
<rect
     x="360.14"
     y="292.445"
     width="144"
     height="36"
     id="rect281"
     fill="none" /><text
     id="text283"
     x="367.54913"
     y="302.05444"><tspan
       x="367.54913"
       y="302.05444"
       font-size="14"
       id="tspan285"
       style="font-style:italic;font-variant:normal;font-weight:bold;font-stretch:normal;font-size:14px;font-family:Arial;-inkscape-font-specification:'Arial Bold Italic'">***I’m a bold</tspan></text>
<text
     transform="matrix(1 0 0 1 225.2795 359.8901)"
     enable-background="new    "
     id="text289"><tspan
       x="0"
       y="0"
       font-size="11"
       id="tspan291"
       font-family="'Arial'">-  Make a sandwich</tspan><tspan
       x="94.763"
       y="0"
       font-size="12"
       id="tspan293"
       font-family="'Arial'" /></text>
<text
     transform="matrix(1 0 0 1 225.2795 467.8901)"
     enable-background="new    "
     id="text295"><tspan
       x="0"
       y="0"
       font-size="11"
       id="tspan297"
       font-family="'Arial'">-  Eat the sandwich  </tspan><tspan
       x="99.661"
       y="0"
       font-size="12"
       id="tspan299"
       font-family="'Arial'" /></text>
<rect
     x="225.28"
     y="413.89"
     width="126"
     height="9"
     id="rect301"
     fill="none" /><rect
     x="243.28"
     y="395.89"
     width="108"
     height="9"
     id="rect303"
     fill="none" /><rect
     x="243.28"
     y="440.89"
     width="108"
     height="9"
     id="rect305"
     fill="none" /><rect
     x="270.28"
     y="449.89"
     width="108"
     height="9"
     id="rect307"
     fill="none" /><rect
     x="270.28"
     y="458.89"
     width="108"
     height="9"
     id="rect309"
     fill="none" /><rect
     x="243.28"
     y="467.89"
     width="108"
     height="9"
     id="rect311"
     fill="none" /><rect
     x="243.28"
     y="395.89"
     width="108"
     height="9"
     id="rect313"
     fill="none" /><rect
     x="243.28"
     y="368.89"
     width="90"
     height="9"
     id="rect315"
     fill="none" /><text
     transform="matrix(1 0 0 1 243.2795 376.7651)"
     font-size="11"
     id="text317"
     font-family="'Arial'">*  Buy :</text>
<rect
     x="243.28"
     y="440.89"
     width="90"
     height="9"
     id="rect319"
     fill="none" /><text
     transform="matrix(1 0 0 1 243.2795 448.7651)"
     font-size="11"
     id="text321"
     font-family="'Arial'">*  Assemble</text>
<rect
     x="252.28"
     y="386.89"
     width="81"
     height="9"
     id="rect323"
     fill="none" /><text
     transform="matrix(1 0 0 1 252.2795 394.7651)"
     font-size="11"
     id="text325"
     font-family="'Arial'">+  bread</text>
<rect
     x="252.28"
     y="404.89"
     width="81"
     height="9"
     id="rect327"
     fill="none" /><text
     transform="matrix(1 0 0 1 252.2795 412.7651)"
     font-size="11"
     id="text329"
     font-family="'Arial'">+  ham</text>
<rect
     x="252.28"
     y="422.89"
     width="81"
     height="9"
     id="rect331"
     fill="none" /><text
     transform="matrix(1 0 0 1 252.2795 430.7651)"
     font-size="11"
     id="text333"
     font-family="'Arial'">+  cheese</text>
<rect
     x="217.28"
     y="503.89001"
     width="126"
     height="54"
     id="rect335"
     style="fill:none" /><text
     id="text337"
     x="231.38763"
     y="511.76511"><tspan
       x="231.38763"
       y="511.76511"
       font-size="11"
       id="tspan339"
       style="font-size:11px;font-family:Arial">First name | Last name </tspan><tspan
       x="249.47163"
       y="524.96509"
       font-size="11"
       id="tspan341"
       style="font-size:11px;font-family:Arial">----------|----------</tspan><tspan
       x="245.14563"
       y="538.16412"
       font-size="11"
       id="tspan343"
       style="font-size:11px;font-family:Arial">Simpson | Homer</tspan><tspan
       x="246.36264"
       y="551.36511"
       font-size="11"
       id="tspan345"
       style="font-size:11px;font-family:Arial">Gumble | Barney</tspan></text>
<rect
     x="216.28"
     y="575.89"
     width="144"
     height="45"
     id="rect347"
     fill="none" /><text
     id="text349"
     x="226.10818"
     y="583.04932"><tspan
       x="226.10818"
       y="583.04932"
       font-size="10"
       id="tspan351"
       style="font-size:10px;font-family:Arial">&gt; Have no fear, have a bear</tspan><tspan
       x="226.10818"
       y="595.04932"
       font-size="10"
       id="tspan353"
       style="font-size:10px;font-family:Arial">&gt; -- Homer Simpson</tspan></text>
<rect
     x="338.81561"
     y="49.445"
     width="21.324411"
     height="9"
     id="rect355" /><rect
     x="333.14"
     y="49.445"
     width="27"
     height="9"
     id="rect357"
     fill="none" /><text
     font-size="11"
     id="text359"
     x="340.06094"
     y="57.354"
     style="font-size:11px;font-family:Helvetica;fill:#ffffff"><tspan
       style="font-style:normal;font-variant:normal;font-weight:normal;font-stretch:normal;font-size:10px;font-family:'Times New Roman';-inkscape-font-specification:'Times New Roman, '"
       id="tspan3522">titles</tspan></text>
<rect
     x="442.54526"
     y="193.44501"
     width="61.594753"
     height="9"
     id="rect361" /><rect
     x="432.14"
     y="193.445"
     width="72"
     height="9"
     id="rect363"
     fill="none" /><text
     font-size="11"
     id="text365"
     x="445.22665"
     y="201.354"
     style="font-size:11px;font-family:Helvetica;fill:#ffffff"><tspan
       style="font-style:normal;font-variant:normal;font-weight:normal;font-stretch:normal;font-size:10px;font-family:'Times New Roman';-inkscape-font-specification:'Times New Roman, '"
       id="tspan3520">italic and bold</tspan></text>
<rect
     x="147.26579"
     y="193.44501"
     width="68.874199"
     height="9"
     id="rect367" /><rect
     x="126.14"
     y="193.445"
     width="90"
     height="9"
     id="rect369"
     fill="none" /><text
     font-size="11"
     id="text371"
     x="148.14729"
     y="200.5162"
     style="font-size:11px;font-family:Helvetica;fill:#ffffff"><tspan
       style="font-style:normal;font-variant:normal;font-weight:normal;font-stretch:normal;font-size:10px;font-family:'Times New Roman';-inkscape-font-specification:'Times New Roman, '"
       id="tspan3518">links and images</tspan></text>
<rect
     x="340.39215"
     y="337.44501"
     width="19.74786"
     height="9"
     id="rect373" /><rect
     x="333.14"
     y="337.445"
     width="27"
     height="9"
     id="rect375"
     fill="none" /><text
     font-size="11"
     id="text377"
     x="342.52847"
     y="345.0387"
     style="font-size:11px;font-family:Helvetica;fill:#ffffff"><tspan
       style="font-style:normal;font-variant:normal;font-weight:normal;font-stretch:normal;font-size:10px;font-family:'Times New Roman';-inkscape-font-specification:'Times New Roman, '"
       id="tspan3524">lists</tspan></text>
<rect
     x="278.79742"
     y="481.44501"
     width="81.342613"
     height="9"
     id="rect379" /><rect
     x="261.14"
     y="481.445"
     width="99"
     height="9"
     id="rect381"
     fill="none" /><text
     font-size="11"
     id="text383"
     x="281.2114"
     y="488.72339"
     style="font-size:11px;font-family:Helvetica;fill:#ffffff"><tspan
       style="font-style:normal;font-variant:normal;font-weight:normal;font-stretch:normal;font-size:10px;font-family:'Times New Roman';-inkscape-font-specification:'Times New Roman, '"
       id="tspan3526">tables and citations</tspan></text>
<rect
     x="216.139"
     y="328.445"
     width="144"
     height="9"
     id="rect385"
     fill="none" /><text
     font-size="5"
     id="text387"
     x="219.65562"
     y="324.24133"
     style="font-size:5px;font-family:Helvetica-Oblique"><tspan
       style="font-style:italic;font-variant:normal;font-weight:normal;font-stretch:normal;font-size:7.5px;font-family:'Times New Roman';-inkscape-font-specification:'Times New Roman, Italic'"
       id="tspan3500">by J. Bardon, P. Padioleau,</tspan></text>
<path
     style="fill:#000000"
     d="m 98.474744,297.1966 0,-38.02092 45.777696,0 45.7777,0 0,38.02092 0,38.02092 -45.7777,0 -45.777696,0 0,-38.02092 z m 90.984016,0.0636 -0.0644,-37.4487 -45.1419,0 -45.141895,0 -0.06442,37.4487 -0.06442,37.4487 45.270735,0 45.27074,0 -0.0644,-37.4487 z m -70.28111,30.95759 c -0.0886,-0.35295 -0.37842,-0.79398 -0.64408,-0.98005 -0.4409,-0.30882 -0.49214,-0.78455 -0.58751,-5.45513 -0.0575,-2.81424 -0.17119,-5.22472 -0.2527,-5.35662 -0.0815,-0.13189 -0.0358,-0.53552 0.10163,-0.89695 0.27232,-0.71627 0.98785,-0.85221 2.15328,-0.40912 0.62379,0.23717 0.65236,0.20877 0.65236,-0.64843 0,-2.62336 2.14279,-3.74569 3.96431,-2.0764 0.79647,0.72992 0.92092,1.01201 1.03785,2.35247 0.11463,1.3142 0.0584,1.60158 -0.41,2.09532 -0.29857,0.31472 -0.8245,0.57222 -1.16874,0.57222 -0.34424,0 -0.62589,0.0815 -0.62589,0.18112 0,0.0996 0.47534,0.66545 1.05633,1.25743 0.88966,0.90651 1.17118,1.05335 1.78429,0.93073 0.90506,-0.18101 3.72908,0.7836 4.33118,1.47942 0.50043,0.57834 0.35776,1.16502 -0.44593,1.83368 -0.50505,0.42021 -0.55063,0.64272 -0.43962,2.1461 0.10078,1.36492 0.0454,1.73467 -0.29757,1.98543 -0.23178,0.16948 -0.43952,0.54846 -0.46165,0.84217 -0.0642,0.85195 -1.03272,0.69128 -1.38006,-0.22894 -0.30339,-0.80378 -0.29829,-0.8023 -2.87537,-0.83447 -3.42364,-0.0427 -3.81157,0.0299 -4.09134,0.76572 -0.45479,1.19619 -1.15622,1.41867 -1.40077,0.4443 z m 0.91434,-0.62987 c 0,-0.13987 -0.11445,-0.25432 -0.25432,-0.25432 -0.13988,0 -0.25432,0.11445 -0.25432,0.25432 0,0.13988 0.11444,0.25432 0.25432,0.25432 0.13987,0 0.25432,-0.11444 0.25432,-0.25432 z m 8.39258,0 c 0,-0.13987 -0.11445,-0.25432 -0.25432,-0.25432 -0.13988,0 -0.25433,0.11445 -0.25433,0.25432 0,0.13988 0.11445,0.25432 0.25433,0.25432 0.13987,0 0.25432,-0.11444 0.25432,-0.25432 z m -4.53781,-1.15663 c 0.65142,-0.0406 2.06054,0.0433 3.13137,0.18638 1.07084,0.14309 2.00908,0.19806 2.08497,0.12217 0.0759,-0.0759 0.0604,-0.80678 -0.0345,-1.62418 l -0.17249,-1.48619 -2.48398,0.0998 -2.48398,0.0998 -0.95336,-0.83706 c -0.80413,-0.70605 -0.93037,-0.952 -0.80649,-1.5714 0.16128,-0.80642 -0.15827,-2.53825 -0.76735,-4.15874 -0.40243,-1.07069 -1.54815,-1.88127 -2.65908,-1.88127 -0.49877,0 -0.50694,0.11991 -0.37425,5.48993 0.0746,3.01945 0.20775,5.60656 0.29586,5.74912 0.10283,0.16639 0.85457,0.1923 2.09953,0.0723 1.06664,-0.10277 2.47233,-0.22006 3.12375,-0.26064 z m 5.79186,-3.78674 c 0.2894,-0.2619 0.52619,-0.63596 0.52619,-0.83123 0,-0.39741 -1.18781,-0.95638 -2.80396,-1.3195 -1.31863,-0.29628 -1.02262,0.0156 0.45513,0.47945 1.24872,0.392 1.80194,0.90526 1.40433,1.30286 -0.17939,0.1794 -0.48364,0.056 -0.96734,-0.39226 -0.3881,-0.35968 -0.98635,-0.65396 -1.32945,-0.65396 -0.34309,0 -1.014,-0.18516 -1.4909,-0.41146 -0.72019,-0.34176 -0.99455,-0.35866 -1.6195,-0.0998 -1.46146,0.60536 -1.56805,1.31476 -0.31822,2.11791 1.00117,0.64336 5.37157,0.50678 6.14372,-0.19201 z m -6.80248,-2.74135 c -0.18249,-0.18249 -0.30095,-0.1975 -0.30095,-0.0381 0,0.33946 0.30077,0.64022 0.4705,0.47049 0.0723,-0.0723 -0.004,-0.26682 -0.16955,-0.43235 z m 1.16332,-0.63079 c -0.77137,-0.77137 -1.00021,-0.73311 -0.67986,0.11368 0.13647,0.3607 0.42889,0.57222 0.79112,0.57222 0.56914,0 0.56807,-0.007 -0.11126,-0.6859 z m -1.94135,-2.17945 c -0.25117,-0.2493 -0.28038,-0.22009 -0.14237,0.14237 0.0955,0.25082 0.23772,0.39196 0.31602,0.31366 0.0783,-0.0783 1.6e-4,-0.28351 -0.17365,-0.45603 z m 2.5552,-0.6074 c 1.18333,-1.07089 -0.21923,-4.41119 -1.85221,-4.41119 -0.73454,0 -1.50723,0.85424 -1.66521,1.84094 -0.13786,0.86105 -0.0559,1.04712 0.86793,1.97098 1.10294,1.10293 1.89499,1.28208 2.64949,0.59927 z m 29.8274,10.6573 c -0.21452,-1.00986 -1.67329,-5.24037 -1.88968,-5.4802 -0.18982,-0.21036 -1.28237,2.60281 -1.83204,4.71724 -0.17271,0.66441 -0.40474,1.20802 -0.5156,1.20802 -0.33943,0 -0.24,-0.43463 0.86296,-3.77236 0.77433,-2.34321 1.08383,-3.72412 1.13529,-5.06528 0.0389,-1.0141 0.0281,-1.84382 -0.0241,-1.84382 -0.0521,0 -0.5273,1.11583 -1.05592,2.47963 -1.00505,2.59293 -1.26014,3.05991 -1.52616,2.79389 -0.16095,-0.16095 1.64215,-5.01717 2.37015,-6.38345 0.32646,-0.6127 0.33261,-0.76363 0.0387,-0.94981 -0.19219,-0.12174 -0.4842,-0.22311 -0.64889,-0.22525 -0.16469,-0.002 -0.54876,-0.31862 -0.85348,-0.70328 -0.4857,-0.61311 -0.53961,-0.92889 -0.43706,-2.56 0.16869,-2.68304 1.0955,-3.82821 2.83426,-3.50202 1.48803,0.27916 1.93473,0.90264 1.93473,2.70045 0,1.78175 -0.45512,3.03698 -1.42806,3.93868 -0.61771,0.57247 -0.64772,0.67347 -0.2833,0.95351 0.58041,0.44599 2.9976,5.359 2.75576,5.60114 -0.29954,0.29992 -0.64858,-0.24206 -1.56105,-2.42395 -1.17762,-2.81593 -1.40844,-2.89467 -1.6068,-0.54811 -0.12066,1.42743 -0.068,2.14431 0.20076,2.7341 0.5635,1.2365 2.17701,6.13373 2.17701,6.60752 0,0.68901 -0.48655,0.48114 -0.64752,-0.27665 z m -0.81951,-13.82153 c 0.72605,-0.97679 0.92306,-3.63529 0.31886,-4.30292 -0.70616,-0.7803 -2.27886,-0.69033 -2.83754,0.16233 -0.63497,0.9691 -0.76659,3.47952 -0.2257,4.30502 0.58033,0.88569 2.02831,0.79893 2.74438,-0.16443 z m -22.33723,12.81236 c -0.23601,-0.38912 -0.62033,-0.9936 -0.85403,-1.34329 -0.76854,-1.14997 -0.81371,-1.27169 -0.47088,-1.26881 0.42501,0.004 2.28763,2.98979 1.98248,3.17838 -0.12565,0.0777 -0.42156,-0.17717 -0.65757,-0.56628 z m -9.36298,-17.17475 c -0.12291,-0.61024 -0.28524,-1.50791 -0.67834,-3.75122 -0.83482,-4.76402 -1.20732,-8.96003 -0.75522,-8.50703 0.13262,0.13289 0.36794,1.55772 0.52293,3.1663 0.29387,3.04985 1.12508,8.48062 1.41275,9.23027 0.0941,0.24514 0.0461,0.43391 -0.11018,0.43391 -0.15218,0 -0.32855,-0.2575 -0.39194,-0.57223 z m 32.65859,-2.64839 c 0,-0.26828 0.35907,-1.21617 1.20801,-3.189 0.6984,-1.62301 0.83089,-0.78405 0.15978,1.01177 -0.59377,1.58886 -1.36779,2.82094 -1.36779,2.17723 z m -0.42946,-7.07796 c -0.71095,-0.49797 -0.99926,-2.14754 -0.54207,-3.10144 0.37916,-0.79108 1.47849,-1.43285 2.06736,-1.20688 1.05973,0.40666 1.14774,2.75918 0.15063,4.02679 -0.59768,0.75983 -0.91656,0.8134 -1.67592,0.28153 z m 1.56737,-0.8789 c 0.6012,-1.16257 0.50228,-2.15441 -0.25529,-2.55985 -0.55971,-0.29955 -0.69893,-0.28866 -1.07134,0.0838 -0.57297,0.57297 -0.50863,2.45947 0.099,2.90381 0.63638,0.46533 0.79423,0.41033 1.22759,-0.42771 z m 5.91419,1.10532 c -0.10199,-0.10199 -0.18544,-0.39525 -0.18544,-0.65169 0,-0.58978 -0.9674,-0.6317 -1.3854,-0.06 -0.26538,0.36293 -0.38068,0.33583 -1.08203,-0.25433 -0.96993,-0.81613 -1.09306,-0.82061 -1.09306,-0.0397 0,0.34144 -0.11444,0.69153 -0.25432,0.77797 -0.1603,0.0991 -0.25432,-0.50099 -0.25432,-1.62306 0,-0.97914 0.11444,-1.85098 0.25432,-1.93742 0.13988,-0.0865 0.25432,0.0785 0.25432,0.36647 0,0.66611 0.20363,0.65993 0.93631,-0.0284 0.32318,-0.30362 0.67389,-0.46555 0.77935,-0.35985 0.10546,0.10571 -0.13991,0.47764 -0.54527,0.82652 l -0.73701,0.63434 0.65888,0.65888 0.65888,0.65888 0.30015,-1.19201 c 0.3658,-1.45273 0.68732,-1.6931 1.28212,-0.95856 0.64783,0.80003 1.03767,3.80717 0.41252,3.18202 z m -0.43976,-1.98727 c 0,-0.0585 -0.0695,-0.28739 -0.15437,-0.50864 -0.21806,-0.56825 -0.60859,-0.5 -0.60859,0.10636 0,0.28258 0.16954,0.50864 0.38148,0.50864 0.20981,0 0.38148,-0.0479 0.38148,-0.10636 z m 2.28793,0.9329 c -5.1e-4,-0.38466 -0.22941,-1.07409 -0.50864,-1.53207 -0.69561,-1.14091 -0.63746,-1.53961 0.12068,-0.82737 l 0.62837,0.59032 0.50761,-0.60957 c 0.27919,-0.33527 0.51142,-0.69541 0.51607,-0.80031 0.0134,-0.30074 0.51711,-0.22227 0.51711,0.0805 0,0.14921 -0.28612,0.6464 -0.63581,1.10487 -0.41021,0.53783 -0.6358,1.16344 -0.6358,1.76328 0,0.51133 -0.11444,0.92969 -0.25432,0.92969 -0.13987,0 -0.25475,-0.31472 -0.25527,-0.69938 z m 1.43519,0.52292 c -0.28641,-0.28641 -0.17444,-0.5865 0.21885,-0.5865 0.20981,0 0.38148,0.10769 0.38148,0.23931 0,0.3207 -0.39715,0.55038 -0.60033,0.34719 z m -58.77853,-4.71921 c 0.83767,-2.88009 1.11249,-3.4969 1.55804,-3.4969 0.18296,0 0.49858,0.2575 0.70139,0.57222 0.39666,0.61554 0.92954,3.14285 0.70914,3.36326 -0.30827,0.30826 -0.55752,0.0931 -0.55752,-0.48136 0,-1.72979 -1.09005,-1.98591 -1.71212,-0.40228 -0.41997,1.06915 -0.98511,1.42901 -0.69893,0.44506 z m 1.90241,-2.35246 c 0,-0.20982 -0.10769,-0.38148 -0.23931,-0.38148 -0.32069,0 -0.55037,0.39714 -0.34719,0.60033 0.28641,0.28641 0.5865,0.17443 0.5865,-0.21885 z m 4.19629,2.16172 c -0.3654,-0.40376 -0.38401,-0.50864 -0.0903,-0.50864 0.20352,0 0.48823,0.1182 0.63269,0.26266 0.41801,0.418 1.14748,-0.004 1.06054,-0.61293 -0.0516,-0.36158 -0.37096,-0.63466 -0.96715,-0.82697 -0.48956,-0.15791 -0.92445,-0.45874 -0.9664,-0.66851 -0.11602,-0.58007 0.65903,-1.20609 1.49321,-1.20609 0.93209,0 0.98437,0.44649 0.065,0.55532 -0.73684,0.0872 -1.15338,0.71628 -0.47431,0.71628 0.22783,0 0.68862,0.27439 1.02399,0.60975 l 0.60975,0.60976 0.16064,-0.8005 c 0.40282,-2.00741 0.58128,-2.11593 1.37299,-0.8349 0.61843,1.00062 0.96831,2.45045 0.59136,2.45045 -0.14104,0 -0.3163,-0.22889 -0.38946,-0.50864 -0.18993,-0.72628 -0.86254,-0.6281 -1.30677,0.19074 -0.20868,0.38466 -0.384,0.60706 -0.3896,0.49422 -0.006,-0.11284 -0.26454,-0.027 -0.57541,0.19074 -0.75861,0.53135 -1.29764,0.49852 -1.85082,-0.11274 z m 3.68765,-2.01955 c 0,-0.13162 -0.11444,-0.31004 -0.25432,-0.39649 -0.13988,-0.0864 -0.25432,0.0212 -0.25432,0.23931 0,0.21807 0.11444,0.39649 0.25432,0.39649 0.13988,0 0.25432,-0.10769 0.25432,-0.23931 z m 19.70984,2.01955 c -0.0864,-0.13987 -0.036,-0.25432 0.11215,-0.25432 0.14813,0 0.26933,0.11445 0.26933,0.25432 0,0.13988 -0.0505,0.25432 -0.11215,0.25432 -0.0617,0 -0.18288,-0.11444 -0.26933,-0.25432 z m -7.97541,-1.38069 c 0.009,-0.77926 0.11953,-1.41683 0.24494,-1.41683 0.12541,0 0.23807,0.20027 0.25037,0.44506 0.0123,0.24478 0.0409,0.83596 0.0636,1.31374 0.0232,0.48795 -0.094,0.91386 -0.2673,0.97177 -0.21848,0.073 -0.30358,-0.31038 -0.29159,-1.31374 z m 1.91411,1.21115 c -0.34819,-0.34819 -0.15665,-2.07893 0.29129,-2.63212 0.33774,-0.41709 0.6095,-0.52194 1.01729,-0.39251 0.30604,0.0971 0.55643,0.34056 0.55643,0.54095 0,0.44846 -0.41773,0.48087 -0.59863,0.0464 -0.20997,-0.50425 -0.92729,0.55459 -0.92729,1.36878 0,0.92418 0.38639,1.12228 1.17769,0.6038 0.73358,-0.48066 1.09088,-0.33567 0.60765,0.24658 -0.32115,0.38696 -1.8034,0.53912 -2.12443,0.21808 z m 2.62797,-1.37139 c 0,-0.96253 0.0955,-1.48193 0.25432,-1.38375 0.13988,0.0864 0.25432,0.38691 0.25432,0.6677 0,0.4069 0.14197,0.49419 0.69939,0.43005 0.57692,-0.0664 0.69762,-0.20293 0.68935,-0.77985 -0.006,-0.38466 0.0803,-0.69938 0.19074,-0.69938 0.11042,0 0.20077,0.68666 0.20077,1.52592 0,0.84773 -0.11303,1.52592 -0.25432,1.52592 -0.13988,0 -0.25432,-0.22889 -0.25432,-0.50864 0,-0.76017 -0.97117,-0.66305 -1.27161,0.12716 -0.37798,0.99417 -0.50864,0.76166 -0.50864,-0.90513 z m -14.63961,-0.044 c 0.0971,-0.73181 0.23743,-1.38987 0.31189,-1.46234 0.0745,-0.0725 0.46756,0.26446 0.87354,0.74874 l 0.73816,0.88052 0.0301,-0.75336 c 0.0166,-0.41434 0.0115,-0.89641 -0.0111,-1.07125 -0.05,-0.38537 0.39508,-0.42236 0.62406,-0.0519 0.26217,0.42419 -0.14891,2.7858 -0.48491,2.7858 -0.16653,0 -0.5056,-0.34333 -0.75348,-0.76296 -0.59667,-1.01009 -0.93058,-0.96446 -0.93058,0.12716 0,0.49159 -0.12853,0.89012 -0.28708,0.89012 -0.19914,0 -0.23302,-0.40759 -0.11058,-1.33057 z m 3.19519,0.29315 c 0,-0.52555 -0.0616,-1.11618 -0.13699,-1.31252 -0.19143,-0.49889 0.83619,-0.88109 1.91723,-0.71308 0.77159,0.11992 0.9003,0.24254 0.96654,0.92086 0.10988,1.12535 -0.66705,1.98806 -1.82665,2.02833 -0.8997,0.0312 -0.92013,0.0107 -0.92013,-0.92359 z m 1.9837,-0.0307 c 0.16785,-0.16786 0.30518,-0.55542 0.30518,-0.86126 0,-0.42366 -0.18202,-0.58279 -0.7644,-0.66826 -0.94433,-0.1386 -1.01584,-0.0691 -1.01584,0.98697 0,0.71504 0.0916,0.84773 0.58494,0.84773 0.32171,0 0.72227,-0.13733 0.89012,-0.30518 z m 1.47684,0.66586 c -0.24959,-0.6504 -0.17678,-2.39524 0.0999,-2.39524 0.13987,0 0.25686,0.42916 0.25997,0.9537 l 0.006,0.9537 0.44914,-0.58368 c 0.47802,-0.6212 0.81115,-0.52075 0.81115,0.24459 0,1.00374 0.50044,0.39599 0.65917,-0.80051 0.0952,-0.7173 0.27499,-1.20066 0.4146,-1.11437 0.23126,0.14292 0.0786,1.9875 -0.23131,2.79513 -0.19119,0.49822 -1.09678,0.43882 -1.09678,-0.0719 0,-0.39164 -0.0323,-0.39164 -0.46508,0 -0.57776,0.52286 -0.71192,0.52562 -0.90647,0.0186 z m 35.19618,-1.61727 c 0,-0.13162 0.091,-0.29558 0.20233,-0.36436 0.11128,-0.0688 0.64955,-1.5633 1.19616,-3.32118 0.54661,-1.75787 1.12809,-3.19613 1.29217,-3.19613 0.30957,0 -1.50189,6.19184 -1.99029,6.80308 -0.29925,0.37452 -0.70037,0.41953 -0.70037,0.0786 z m -53.49505,-2.26034 c -0.60183,-0.66501 -0.56465,-1.26976 0.0442,-0.71878 0.62576,0.56632 0.992,0.52979 1.19807,-0.11949 0.18226,-0.57425 -0.19823,-0.97473 -0.93264,-0.98164 -1.16373,-0.0109 -1.2471,-1.85366 -0.0969,-2.14233 0.82562,-0.20722 1.9081,0.0661 1.76291,0.4451 -0.0621,0.16201 -0.54083,0.29458 -1.06393,0.29458 -1.10892,0 -1.37015,0.70499 -0.31528,0.85091 1.28176,0.1773 1.65834,1.15412 0.8757,2.2715 -0.48116,0.68695 -0.91437,0.71642 -1.47209,0.10015 z m 2.92908,-0.2343 c -0.35574,-0.69319 -0.57929,-2.56018 -0.32534,-2.71713 0.30453,-0.18821 0.53584,0.46575 0.53584,1.5149 0,1.84875 1.02324,1.09078 1.21449,-0.89964 0.13503,-1.40525 0.56576,-1.47818 0.56576,-0.0958 0,1.03773 -0.56822,2.25926 -1.15584,2.48475 -0.56743,0.21774 -0.57764,0.21423 -0.83491,-0.28709 z m 2.72603,0.25917 c -0.0152,-0.10757 -0.0438,-0.92207 -0.0636,-1.80999 l -0.0359,-1.61439 0.96368,0.12919 c 0.53002,0.0711 1.13085,0.26794 1.33518,0.43752 0.54378,0.45129 0.45375,1.39948 -0.20072,2.11404 -0.56189,0.61347 -1.94428,1.12782 -1.99866,0.74363 z m 1.49701,-0.97297 c 0.75899,-0.53161 0.71372,-1.23504 -0.10343,-1.60736 -0.78254,-0.35655 -0.79174,-0.35145 -0.86068,0.47734 -0.13416,1.61302 0.0187,1.7922 0.96411,1.13002 z m 1.94354,0.52753 c -0.31998,-0.48835 -0.36268,-0.84834 -0.18852,-1.5895 0.1977,-0.8414 0.32691,-0.96804 1.06021,-1.03911 1.06873,-0.10357 1.56481,0.31715 1.56481,1.32709 0,1.74609 -1.58904,2.59492 -2.4365,1.30152 z m 1.66078,-0.24341 c 0.16711,-0.20135 0.26695,-0.68774 0.22188,-1.08086 -0.0655,-0.57101 -0.20983,-0.71476 -0.71776,-0.71476 -0.50923,0 -0.65223,0.1435 -0.71835,0.72086 -0.15241,1.33099 0.51286,1.91985 1.21423,1.07476 z m 3.00365,0.55684 c -0.2066,-0.56926 0.17965,-2.81763 0.50237,-2.92433 0.17284,-0.0571 0.45048,0.19511 0.61699,0.56054 l 0.30273,0.66443 0.32444,-0.77161 c 0.49583,-1.17922 1.03517,-0.98285 1.23204,0.44857 0.26629,1.93616 0.5523,2.09425 0.88546,0.48943 0.29992,-1.4447 0.85897,-2.23604 1.281,-1.81328 0.27277,0.27324 1.0636,3.19631 0.9071,3.35281 -0.22833,0.22832 -0.65044,-0.25102 -0.65044,-0.73864 0,-0.77444 -1.08074,-0.53083 -1.27327,0.28702 -0.10967,0.46588 -0.31636,0.63503 -0.77338,0.63289 -0.54021,-0.003 -0.64295,-0.14661 -0.76735,-1.07614 -0.18999,-1.41966 -0.42051,-1.59612 -0.62953,-0.48192 -0.21273,1.13391 -0.87792,1.80582 -0.88381,0.89273 -0.002,-0.33185 -0.11484,-0.77503 -0.25043,-0.98484 -0.18055,-0.27937 -0.24757,-0.0922 -0.25043,0.69938 -0.004,1.02495 -0.32383,1.45086 -0.57349,0.76296 z m 5.14737,-2.08313 c 0,-0.20156 -0.11445,-0.4372 -0.25432,-0.52365 -0.13988,-0.0864 -0.25432,-0.10256 -0.25432,-0.0358 0,0.0668 -0.0695,0.30239 -0.15437,0.52365 -0.1013,0.26398 -0.0139,0.40228 0.25432,0.40228 0.22478,0 0.40869,-0.16491 0.40869,-0.36647 z m 4.46557,2.08313 c -0.20429,-0.67485 -0.60033,-3.11984 -0.51885,-3.2031 0.24222,-0.24746 1.73623,-0.12419 1.83317,0.15126 0.0708,0.20115 -0.12941,0.3179 -0.54513,0.3179 -0.77461,0 -0.88169,0.4975 -0.14835,0.68927 0.67206,0.17575 0.65306,0.58233 -0.0272,0.58233 -0.38414,0 -0.49215,0.1139 -0.38148,0.40228 0.0849,0.22126 0.15437,0.48531 0.15437,0.5868 0,0.10148 0.34333,0.16074 0.76296,0.13169 0.50967,-0.0353 0.76296,0.0654 0.76296,0.30333 0,0.45604 -1.75523,0.49152 -1.89244,0.0382 z m 7.65556,0.12716 c -0.064,-0.1049 -0.15654,-0.93462 -0.20575,-1.84382 l -0.0895,-1.65308 1.08087,-0.0782 c 0.84242,-0.0609 1.08086,0.009 1.08086,0.3179 0,0.27057 -0.24181,0.39611 -0.76296,0.39611 -0.81033,0 -1.07334,0.58944 -0.38148,0.85493 0.20981,0.0805 0.38148,0.26442 0.38148,0.40869 0,0.14427 -0.17167,0.2623 -0.38148,0.2623 -0.21218,0 -0.38149,0.22617 -0.38149,0.50961 0,0.41547 0.14757,0.49769 0.79887,0.44506 0.46126,-0.0373 0.84639,0.0698 0.91132,0.25335 0.12379,0.34998 -1.84068,0.47179 -2.05076,0.12716 z m -10.36015,-0.11215 c -0.0106,-0.0432 -0.0392,-0.85113 -0.0636,-1.79534 -0.0425,-1.64639 0.2357,-2.28665 0.52045,-1.19777 0.12823,0.49034 0.16181,0.49516 0.612,0.0877 0.61519,-0.55675 0.66355,0.0366 0.0575,0.70625 -0.39237,0.43356 -0.37633,0.49611 0.25432,0.99219 0.3702,0.2912 0.67309,0.69281 0.67309,0.89247 0,0.51747 -0.33284,0.44862 -0.70395,-0.14562 -0.3601,-0.57662 -1.13567,-0.70497 -0.92382,-0.15288 0.0751,0.19566 0.0143,0.4313 -0.13514,0.52365 -0.14941,0.0923 -0.28033,0.13253 -0.29092,0.0893 z m 6.6316,-1.98599 c 0,-1.85405 0.2955,-2.27196 0.80923,-1.14444 0.34987,0.76787 0.62723,0.80966 0.84385,0.12716 0.37332,-1.17622 1.30851,-0.32637 1.39959,1.27186 0.0748,1.31224 0.0272,1.573 -0.25515,1.3985 -0.13987,-0.0865 -0.25432,-0.66542 -0.25432,-1.28661 0,-1.35415 -0.35798,-1.46643 -0.76296,-0.23931 -0.35373,1.0718 -0.6342,1.12661 -0.97601,0.19074 -0.24251,-0.66399 -0.25645,-0.64469 -0.27551,0.38148 -0.0345,1.85463 -0.52872,1.20082 -0.52872,-0.69938 z m -13.76182,-4.13271 c -0.1418,-4.11183 0.28963,-9.44998 0.80572,-9.96936 0.31002,-0.312 0.30678,0.32486 -0.0115,2.26874 -0.13676,0.83517 -0.26326,3.09545 -0.28111,5.02283 -0.0178,1.92738 -0.13418,3.50433 -0.25851,3.50433 -0.12434,0 -0.23889,-0.37194 -0.25457,-0.82654 z m 43.37179,-1.15015 c 0.0892,-0.28102 0.002,-0.977 -0.19464,-1.54661 -0.19625,-0.56962 -0.29537,-1.09712 -0.22026,-1.17223 0.25912,-0.25912 0.56043,-0.13551 0.56043,0.22991 0,0.6706 0.50601,0.69086 0.75714,0.0303 0.13616,-0.35811 0.36483,-0.65111 0.50817,-0.65111 0.33929,0 0.335,0.0271 -0.16236,1.02405 -0.23264,0.46634 -0.49308,1.19064 -0.57876,1.60957 -0.0857,0.41892 -0.3079,0.81239 -0.49383,0.87436 -0.23768,0.0792 -0.2899,-0.039 -0.17589,-0.39826 z m 1.97664,0.14558 c -0.32316,-0.32316 -0.40978,-1.66954 -0.15082,-2.34438 0.16772,-0.43706 1.11724,-0.56281 1.11724,-0.14796 0,0.13988 -0.11728,0.25432 -0.26062,0.25432 -0.44804,0 -0.80671,1.28635 -0.47135,1.69044 0.2524,0.30412 0.36519,0.29458 0.76194,-0.0645 0.71438,-0.6465 0.83684,-1.34399 0.3336,-1.90006 -0.51829,-0.57271 -0.30528,-0.96815 0.26608,-0.49396 0.60232,0.49988 0.48014,1.86557 -0.23603,2.63833 -0.69655,0.75159 -0.91668,0.81112 -1.36004,0.36775 z m 9.15554,0 c -0.32268,-0.32267 -0.41758,-0.96641 -0.14248,-0.96641 0.0895,0 0.3102,0.20027 0.49047,0.44506 0.31217,0.42387 0.33599,0.42387 0.50031,0 0.24361,-0.6284 -0.0376,-1.20803 -0.586,-1.20803 -0.71656,0 -1.09744,-0.50227 -0.80096,-1.05624 0.26606,-0.49712 1.7594,-0.67992 1.7594,-0.21536 0,0.13988 -0.28611,0.25432 -0.63581,0.25432 -0.34969,0 -0.6358,0.11445 -0.6358,0.25432 0,0.13988 0.28393,0.25432 0.63096,0.25432 0.76363,0 1.10908,0.98086 0.67837,1.92616 -0.30639,0.67247 -0.7804,0.78993 -1.25846,0.31186 z m 7.00198,0.11445 c -0.054,-0.10491 -0.0893,-0.87741 -0.0786,-1.71667 0.0135,-1.05533 0.1176,-1.51807 0.33746,-1.50049 0.17484,0.014 0.66123,0.0426 1.08086,0.0636 0.47611,0.0238 0.76296,0.17557 0.76296,0.40364 0,0.27567 -0.21875,0.33 -0.89012,0.22105 -0.70288,-0.11406 -0.89012,-0.0599 -0.89012,0.25767 0,0.22117 0.20028,0.52889 0.44506,0.68384 0.31872,0.20174 0.35482,0.31964 0.12716,0.41531 -0.17485,0.0735 -0.3179,0.41017 -0.3179,0.7482 0,0.57824 -0.36088,0.84345 -0.57677,0.42387 z m -24.85528,-1.54712 c 0,-0.86257 0.10294,-1.56831 0.22877,-1.56831 0.25583,0 0.19921,2.70864 -0.0621,2.96993 -0.0917,0.0917 -0.16669,-0.53905 -0.16669,-1.40162 z m 2.28888,0.50206 c 0,-1.34767 -0.20766,-1.81605 -0.80518,-1.81605 -0.27304,0 -0.43387,-0.10124 -0.3574,-0.22497 0.18842,-0.30487 2.24204,-0.59576 2.77151,-0.39258 0.72129,0.27678 0.4716,0.61755 -0.45251,0.61755 l -0.87813,0 0.14653,1.23722 c 0.0937,0.79083 0.0435,1.30092 -0.13915,1.41377 -0.19306,0.11932 -0.28567,-0.15136 -0.28567,-0.83494 z m 11.64063,-0.34467 c 0.17794,-1.94021 0.42319,-2.30465 1.41098,-2.09671 1.12579,0.237 1.28297,0.46267 0.6937,0.99595 -0.50716,0.45898 -0.5068,0.46253 0.12286,1.21083 0.91109,1.08277 0.48022,1.41902 -0.54501,0.42533 -0.99805,-0.96735 -1.08258,-1.43273 -0.312,-1.71778 0.50694,-0.18753 0.51349,-0.21706 0.0846,-0.38163 -0.6783,-0.26028 -0.94779,0.15442 -0.98448,1.51493 -0.0179,0.66339 -0.15885,1.24827 -0.31324,1.29973 -0.19109,0.0637 -0.24135,-0.33563 -0.15744,-1.25065 z m 5.78033,-0.19977 0,-1.52593 1.08086,0 c 1.26383,0 1.46477,0.4394 0.25432,0.55611 -0.4546,0.0438 -0.76932,0.19414 -0.69938,0.33401 0.0699,0.13988 0.39625,0.21957 0.72513,0.17708 0.77146,-0.0996 0.60796,0.51842 -0.18678,0.70603 -0.81125,0.19151 -0.7908,0.6284 0.0339,0.72329 1.04382,0.1201 0.8445,0.55533 -0.25432,0.55533 l -0.9537,0 0,-1.52592 z m 2.67036,0 c 0,-0.84774 0.11303,-1.52593 0.25432,-1.52593 0.13988,0 0.25432,0.57222 0.25432,1.2716 0,1.2488 0.014,1.27161 0.77798,1.27161 0.45388,0 0.71249,0.10594 0.62079,0.25432 -0.0865,0.13987 -0.55098,0.25432 -1.03229,0.25432 l -0.87512,0 0,-1.52592 z m 4.57777,1.28661 c 0,-0.13162 0.11445,-0.31004 0.25432,-0.39649 0.13988,-0.0864 0.25432,0.0212 0.25432,0.23931 0,0.21807 -0.11444,0.39649 -0.25432,0.39649 -0.13987,0 -0.25432,-0.10769 -0.25432,-0.23931 z m -15.49795,-0.3777 c -0.34976,-0.42143 -0.26115,-2.59467 0.1017,-2.49454 0.13446,0.0371 0.21238,0.51185 0.17316,1.05499 -0.13956,1.93293 1.08093,1.45944 1.40123,-0.5436 0.0845,-0.52818 0.25338,-0.96033 0.37538,-0.96033 0.37359,0 0.23688,1.08665 -0.27998,2.22531 -0.51583,1.1364 -1.19566,1.41201 -1.77149,0.71817 z m 12.04635,-4.1515 c -0.20621,-0.31472 -0.47339,-0.57222 -0.59373,-0.57222 -0.12034,0 -0.30221,0.2575 -0.40416,0.57222 -0.14301,0.44147 -0.23681,0.22355 -0.41051,-0.9537 -0.23416,-1.58702 -0.13452,-2.45632 0.16762,-1.46235 0.22812,0.75047 0.46666,0.72193 1.01961,-0.12196 0.25016,-0.3818 0.49942,-0.56045 0.55391,-0.39699 0.0545,0.16346 -0.0893,0.58474 -0.31961,0.93618 -0.39183,0.598 -0.38878,0.68003 0.0476,1.27912 0.25643,0.35207 0.55207,0.64373 0.65698,0.64813 0.1049,0.004 0.19074,-0.67868 0.19074,-1.51793 l 0,-1.52593 1.14444,0 c 0.62944,0 1.14444,0.11445 1.14444,0.25432 0,0.13988 -0.40055,0.25432 -0.89012,0.25432 -0.7769,0 -0.89012,0.0799 -0.89012,0.62782 0,0.45358 0.10587,0.58719 0.38148,0.48144 0.20981,-0.0805 0.38148,-0.0319 0.38148,0.10793 0,0.13987 -0.17167,0.32019 -0.38148,0.40071 -0.70668,0.27118 -0.437,0.92531 0.38148,0.92531 0.44082,0 0.76296,0.13422 0.76296,0.3179 0,0.21234 -0.42635,0.3179 -1.28401,0.3179 -1.05093,0 -1.35207,-0.10388 -1.65895,-0.57222 z m -23.33436,-0.12033 c -0.35848,-1.47354 -0.48302,-3.75806 -0.20486,-3.75806 0.1616,0 0.28887,0.41702 0.29106,0.9537 0.005,1.27899 0.34261,1.82251 0.72936,1.17496 0.26818,-0.44904 0.29892,-0.45075 0.55099,-0.0305 0.43691,0.72841 0.7088,0.5141 0.89124,-0.7025 0.16569,-1.1049 0.46242,-1.61678 0.70087,-1.20905 0.0627,0.10719 -0.0725,0.93823 -0.30033,1.84677 -0.29226,1.16528 -0.5454,1.67645 -0.85936,1.73531 -0.27063,0.0507 -0.44506,-0.0734 -0.44506,-0.3167 0,-0.22006 -0.11444,-0.40012 -0.25432,-0.40012 -0.13988,0 -0.25432,0.15765 -0.25432,0.35034 0,0.19268 -0.15849,0.48187 -0.3522,0.64263 -0.27961,0.23207 -0.38122,0.17297 -0.49307,-0.28676 z m 9.23785,-1.0665 c 0,-1.61635 -0.022,-1.67428 -0.63581,-1.67428 -0.98436,0 -0.75008,-0.42542 0.31791,-0.57725 0.52453,-0.0746 1.15397,-0.21633 1.39876,-0.31502 0.30504,-0.12298 0.44506,-0.0602 0.44506,0.1996 0,0.20847 -0.23733,0.44109 -0.5274,0.51695 -0.47223,0.12349 -0.5206,0.30457 -0.46239,1.73091 0.0429,1.05062 -0.0373,1.62709 -0.23556,1.69317 -0.21093,0.0703 -0.30057,-0.39917 -0.30057,-1.57408 z m 7.12318,1.05967 c 0.001,-0.31472 0.0744,-1.17306 0.16259,-1.90741 0.16277,-1.35513 0.53676,-1.75206 0.77879,-0.82654 0.1701,0.65046 0.37627,0.6427 0.79636,-0.03 0.49752,-0.79666 0.79141,-0.30181 0.97251,1.63752 0.1119,1.19832 0.0729,1.69863 -0.13248,1.69863 -0.17488,0 -0.29109,-0.4509 -0.29109,-1.12943 0,-1.31935 -0.31508,-1.65942 -0.71804,-0.77501 -0.18469,0.40533 -0.41968,0.57066 -0.67299,0.47345 -0.29794,-0.11433 -0.38922,0.036 -0.38922,0.64082 0,0.43459 -0.11444,0.79017 -0.25432,0.79017 -0.13987,0 -0.25332,-0.2575 -0.25211,-0.57222 z m 3.18557,-0.25432 c 0.26372,-1.23612 0.82162,-2.47963 1.11248,-2.47963 0.35733,0 0.86075,1.79644 0.71583,2.55439 l -0.11943,0.62462 -0.1891,-0.57222 c -0.25193,-0.76231 -0.79865,-0.72745 -0.99719,0.0636 -0.24388,0.97169 -0.73255,0.79334 -0.52259,-0.19074 z m -13.75765,-0.38148 c 0.32197,-1.82558 0.67826,-2.63891 1.11883,-2.55406 0.51613,0.0994 0.98549,1.05383 1.09966,2.23616 0.0948,0.9819 -0.37274,1.49677 -0.50593,0.55711 -0.11269,-0.79508 -1.15305,-0.6785 -1.26962,0.14227 -0.0447,0.31472 -0.20049,0.57222 -0.3462,0.57222 -0.16651,0 -0.20245,-0.35433 -0.0967,-0.9537 z m 1.66865,-1.17689 c 0,-0.19268 -0.1583,-0.48172 -0.35178,-0.64229 -0.27228,-0.22597 -0.38723,-0.19957 -0.50864,0.11682 -0.26052,0.67891 -0.18143,0.87582 0.35178,0.87582 0.27975,0 0.50864,-0.15766 0.50864,-0.35035 z m 4.46708,1.90292 c -0.0774,-0.12522 0.0303,-0.2933 0.23931,-0.3735 0.23084,-0.0886 0.38002,7.6e-4 0.38002,0.22767 0,0.41133 -0.3974,0.50491 -0.61933,0.14583 z m -8.53621,-1.66473 c 0,-0.94251 0.11063,-1.66809 0.25432,-1.66809 0.13988,0 0.25432,0.28611 0.25432,0.6358 0,0.39561 0.14412,0.6358 0.38149,0.6358 0.25961,0 0.38148,-0.25997 0.38148,-0.81382 0,-1.38164 0.49038,-0.4527 0.67044,1.27002 0.11072,1.05926 0.075,1.57837 -0.10868,1.57837 -0.15051,0 -0.30987,-0.31374 -0.35413,-0.69721 -0.10806,-0.93623 -0.9706,-1.13757 -0.9706,-0.22657 0,0.35169 -0.11444,0.71017 -0.25432,0.79662 -0.15967,0.0987 -0.25432,-0.46362 -0.25432,-1.51092 z m 8.39258,0.0669 c 0,-0.38526 0.23599,-0.8298 0.57222,-1.07795 0.5609,-0.41394 0.5521,-0.41947 -0.44506,-0.27959 -0.9468,0.13282 -0.98308,0.11588 -0.52361,-0.24452 0.62315,-0.48879 1.57011,-0.50066 1.75379,-0.022 0.11956,0.31155 -0.31653,1.08672 -1.14655,2.03807 -0.11947,0.13695 -0.21079,-0.0424 -0.21079,-0.41404 z m -20.90591,-5.22939 c -0.6257,-0.14268 -0.76949,-0.86575 -0.3978,-2.0003 0.3331,-1.01675 1.16472,-1.38777 1.41664,-0.63203 0.0818,0.24542 -0.0105,0.30855 -0.29283,0.20022 -0.5442,-0.20883 -1.02225,0.68709 -0.81252,1.52273 0.1099,0.43787 0.28112,0.58855 0.55107,0.48496 0.21539,-0.0827 0.49671,-0.15029 0.62515,-0.15029 0.12844,0 0.24493,-0.37194 0.25887,-0.82654 0.0139,-0.4546 0.11698,-1.11265 0.22897,-1.46234 0.19534,-0.60997 0.20465,-0.61255 0.22897,-0.0636 0.0204,0.46062 0.17415,0.57222 0.78831,0.57222 0.59342,0 0.76296,-0.11303 0.76296,-0.50864 0,-0.27975 0.0968,-0.50864 0.2151,-0.50864 0.11831,0 0.18029,0.70097 0.13775,1.55772 -0.0848,1.70839 -0.35285,2.39255 -0.35285,0.90071 0,-0.86657 -0.0539,-0.93251 -0.76296,-0.93251 -0.57205,0 -0.76296,0.11741 -0.76296,0.46922 0,0.74337 -1.07316,1.5501 -1.83187,1.37709 z m -41.90779,-1.5134 c 0.006,-2.63002 0.55242,-3.40118 1.29642,-1.83021 l 0.37488,0.79158 0.69214,-1.0459 c 0.38068,-0.57525 0.79978,-1.04591 0.93134,-1.04591 0.13155,0 0.30903,0.42917 0.39439,0.95371 0.0854,0.52453 0.26459,1.51401 0.39828,2.19883 0.22865,1.17125 0.16414,1.69594 -0.16772,1.36408 -0.0803,-0.0803 -0.27518,-0.90045 -0.43314,-1.82263 -0.15797,-0.92219 -0.36315,-1.6767 -0.45597,-1.6767 -0.0928,0 -0.42259,0.60083 -0.73284,1.33518 l -0.56408,1.33518 -0.42353,-1.05975 c -0.64306,-1.6091 -0.805,-1.58652 -0.805,0.11224 0,0.85431 -0.11445,1.62403 -0.25432,1.71047 -0.15854,0.098 -0.25302,-0.39924 -0.25085,-1.32017 z m 10.16935,-0.3489 0,-1.76425 0.89012,0 c 0.48957,0 0.89012,0.11444 0.89012,0.25432 0,0.13987 -0.28611,0.25432 -0.6358,0.25432 -0.76256,0 -0.84184,0.40897 -0.12347,0.63697 0.28179,0.0894 0.44979,0.26382 0.37334,0.38751 -0.0765,0.1237 -0.307,0.16044 -0.51234,0.0816 -0.27087,-0.10394 -0.37333,0.0434 -0.37333,0.53689 0,0.53097 0.0976,0.64977 0.44506,0.54166 0.43162,-0.13431 1.31488,0.22432 1.0735,0.43587 -0.0659,0.0577 -0.54896,0.17122 -1.0735,0.25216 l -0.9537,0.14717 0,-1.76426 z m 3.84253,0.465 c 0.0307,-0.75823 0.15536,-1.64781 0.27708,-1.97685 0.20494,-0.55401 0.25209,-0.56747 0.6376,-0.18195 0.3834,0.3834 0.44009,0.38375 0.71745,0.004 0.47721,-0.65263 1.13713,-0.22257 1.14115,0.74367 0.002,0.45898 0.0725,1.09202 0.15682,1.40674 0.0899,0.33537 0.0394,0.57222 -0.12188,0.57222 -0.15137,0 -0.35458,-0.59823 -0.45157,-1.3294 -0.18134,-1.36703 -0.36441,-1.26894 -0.7206,0.3861 -0.19722,0.91638 -0.64121,0.64446 -0.66436,-0.40689 -0.0151,-0.68407 -0.0522,-0.73164 -0.23645,-0.30289 -0.12022,0.27975 -0.22662,0.87383 -0.23645,1.32017 -0.01,0.44634 -0.13863,0.88617 -0.28622,0.97738 -0.17801,0.11002 -0.24957,-0.29826 -0.21257,-1.21274 z m 9.38214,0.56827 c 0,-0.64627 -0.0982,-0.76296 -0.6421,-0.76296 -0.45492,0 -0.71426,0.18981 -0.88965,0.6511 -0.13615,0.35811 -0.35975,0.58177 -0.49688,0.49701 -0.15211,-0.094 -0.045,-0.67022 0.27462,-1.47765 0.28818,-0.72795 0.58518,-1.52382 0.66001,-1.7686 0.20777,-0.67975 0.57454,-0.53334 0.95561,0.38148 0.50611,1.21499 0.76973,3.24258 0.42158,3.24258 -0.15576,0 -0.28319,-0.34333 -0.28319,-0.76296 z m -0.36779,-1.54808 c 0.094,-0.15207 0.0541,-0.39324 -0.0886,-0.53594 -0.17641,-0.17641 -0.35128,-0.0879 -0.54629,0.27647 -0.23149,0.43255 -0.2144,0.53595 0.0886,0.53595 0.20648,0 0.45231,-0.12442 0.54629,-0.27648 z m 2.82622,2.1415 c -0.38367,-0.38368 -0.12337,-0.57147 0.59341,-0.42811 0.59733,0.11947 0.76296,0.0629 0.76296,-0.26068 0,-0.27025 -0.218,-0.41327 -0.62993,-0.41327 -0.39907,0 -0.79003,-0.24432 -1.06674,-0.66663 -0.41637,-0.63546 -0.41437,-0.68303 0.0427,-1.01728 0.55197,-0.40362 2.16257,-0.47536 2.16257,-0.0963 0,0.13987 -0.38149,0.25432 -0.84774,0.25432 -0.46625,0 -0.91615,0.0684 -0.99976,0.15202 -0.34143,0.34143 0.16857,0.86526 0.84241,0.86526 0.86006,0 1.10761,0.31983 0.89702,1.1589 -0.11916,0.47478 -0.32477,0.62134 -0.87168,0.62134 -0.39365,0 -0.79202,-0.0763 -0.88527,-0.16954 z m 11.18476,-0.0248 c -0.10994,-0.17789 -0.24527,-2.38603 -0.18291,-2.98462 0.0566,-0.5432 0.52065,0.55046 0.53957,1.2716 l 0.02,0.76296 0.25326,-0.63509 0.25326,-0.63509 0.43974,0.58297 c 0.56815,0.75322 0.80174,0.49213 0.80174,-0.89611 0,-0.72903 0.0946,-1.05861 0.27226,-0.94879 0.29832,0.18436 0.0915,1.95709 -0.31953,2.73927 -0.19881,0.3783 -0.31158,0.40417 -0.62565,0.14352 -0.30949,-0.25686 -0.42754,-0.24779 -0.61417,0.0472 -0.12708,0.20082 -0.2328,0.45096 -0.23494,0.55586 -0.005,0.2492 -0.44804,0.24653 -0.60265,-0.004 z m -28.9978,-0.85469 c -0.23203,-1.16015 -0.19427,-2.25709 0.0777,-2.25709 0.13014,0 0.27919,0.2575 0.33121,0.57222 0.0887,0.5368 0.12524,0.52115 0.58991,-0.25271 0.27243,-0.45372 0.58116,-0.82566 0.68607,-0.82655 0.33507,-0.003 0.20491,0.57849 -0.23949,1.06954 -0.40408,0.44651 -0.40408,0.51964 0,1.20371 0.60402,1.02251 0.52234,1.55786 -0.10864,0.7121 -0.56564,-0.75818 -1.10385,-0.70374 -0.8531,0.0863 0.085,0.26798 0.0468,0.48723 -0.085,0.48723 -0.13182,0 -0.31119,-0.35763 -0.39862,-0.79475 z m 9.5561,0.48957 c -0.16785,-0.16785 -0.30519,-0.91174 -0.30519,-1.65308 l 0,-1.3479 0.89013,0 c 0.48956,0 0.89012,0.11444 0.89012,0.25432 0,0.13987 -0.22214,0.25432 -0.49363,0.25432 -0.63841,0 -0.92823,0.46695 -0.41261,0.6648 0.51676,0.19831 0.51335,0.6068 -0.005,0.6068 -0.67983,0 -0.24142,0.61439 0.61334,0.85953 0.44363,0.12723 0.80661,0.32922 0.80661,0.44886 0,0.33159 -1.63679,0.25926 -1.9837,-0.0876 z m 10.72692,-0.64025 c 0.17081,-1.13536 0.64157,-2.36073 0.90695,-2.36073 0.0873,0 0.3445,0.31472 0.57164,0.69938 0.49094,0.8314 0.91436,2.86936 0.51518,2.47962 -0.14326,-0.13987 -0.30177,-0.48321 -0.35223,-0.76296 -0.0551,-0.30573 -0.29188,-0.50864 -0.59342,-0.50864 -0.30155,0 -0.53828,0.20291 -0.59343,0.50864 -0.19511,1.08168 -0.618,1.03024 -0.45469,-0.0553 z m 1.17528,-1.34345 c 0,-0.13988 -0.11445,-0.25432 -0.25432,-0.25432 -0.13988,0 -0.25432,0.11444 -0.25432,0.25432 0,0.13988 0.11444,0.25432 0.25432,0.25432 0.13987,0 0.25432,-0.11444 0.25432,-0.25432 z m 2.70396,1.23615 -0.66458,-1.10899 -0.002,0.9537 c -0.002,0.52454 -0.11697,0.9537 -0.25685,0.9537 -0.13987,0 -0.25432,-0.62944 -0.25432,-1.39876 0,-0.76932 0.10511,-1.39876 0.23358,-1.39876 0.12847,0 0.49281,0.41944 0.80965,0.9321 l 0.57607,0.9321 0.30813,-0.99568 0.30812,-0.99568 0.0228,1.2716 c 0.0345,1.92513 -0.28658,2.17913 -1.08029,0.85467 z m 2.02229,0.48051 c -0.49769,-2.46505 -0.31944,-2.9142 1.02288,-2.5773 1.22925,0.30852 1.45475,1.58967 0.44459,2.52587 -0.8378,0.77644 -1.3177,0.79326 -1.46747,0.0514 z m 1.5046,-1.21132 c 0,-0.6822 -0.7462,-1.25963 -1.13079,-0.87504 -0.14006,0.14006 -0.18487,0.68473 -0.0996,1.21036 0.14712,0.90661 0.1827,0.93736 0.69272,0.59872 0.2957,-0.19634 0.53764,-0.61666 0.53764,-0.93404 z m 10.42715,1.52922 c 0.0865,-0.13987 0.20764,-0.25432 0.26933,-0.25432 0.0617,0 0.11215,0.11445 0.11215,0.25432 0,0.13988 -0.1212,0.25432 -0.26933,0.25432 -0.14813,0 -0.1986,-0.11444 -0.11215,-0.25432 z m -41.17747,-0.9537 c 0.53761,-2.96927 1.94492,-3.04135 2.48267,-0.12716 0.16601,0.89968 -0.19755,1.15744 -0.42199,0.29918 -0.19985,-0.76423 -1.54159,-0.59449 -1.65577,0.20946 -0.0447,0.31472 -0.19294,0.57222 -0.32942,0.57222 -0.14791,0 -0.17841,-0.38526 -0.0755,-0.9537 z m 1.88494,-1.04972 c 0,-0.12275 -0.16368,-0.35903 -0.36374,-0.52506 -0.29093,-0.24145 -0.42,-0.19677 -0.64475,0.22318 -0.24959,0.46635 -0.20892,0.52506 0.36374,0.52506 0.35462,0 0.64475,-0.10043 0.64475,-0.22318 z m 33.31599,0.74683 c 0,-0.70764 0.11445,-1.28661 0.25432,-1.28661 0.13988,0 0.25433,0.50824 0.25433,1.12943 0,0.62119 -0.11445,1.20016 -0.25433,1.28661 -0.15674,0.0969 -0.25432,-0.33645 -0.25432,-1.12943 z"
     id="path3786"
     inkscape:connector-curvature="0" /><text
     xml:space="preserve"
     style="font-style:normal;font-weight:normal;font-size:40px;line-height:125%;font-family:sans-serif;letter-spacing:0px;word-spacing:0px;fill:#000000;fill-opacity:1;stroke:none;stroke-width:1px;stroke-linecap:butt;stroke-linejoin:miter;stroke-opacity:1"
     x="125"
     y="161.89001"
     id="text3490"
     sodipodi:linespacing="125%"><tspan
       sodipodi:role="line"
       id="tspan3492"
       x="125"
       y="161.89001" /></text>
<text
     xml:space="preserve"
     style="font-style:normal;font-weight:normal;font-size:40px;line-height:125%;font-family:sans-serif;letter-spacing:0px;word-spacing:0px;fill:#000000;fill-opacity:1;stroke:none;stroke-width:1px;stroke-linecap:butt;stroke-linejoin:miter;stroke-opacity:1"
     x="400.72964"
     y="237.78188"
     id="text3506"
     sodipodi:linespacing="125%"><tspan
       sodipodi:role="line"
       id="tspan3508"
       x="400.72964"
       y="237.78188"
       style="font-style:italic;font-variant:normal;font-weight:normal;font-stretch:normal;font-size:13.75px;font-family:Arial;-inkscape-font-specification:'Arial Italic'">_me too_</tspan></text>
<text
     xml:space="preserve"
     style="font-style:normal;font-weight:normal;font-size:40px;line-height:125%;font-family:sans-serif;letter-spacing:0px;word-spacing:0px;fill:#000000;fill-opacity:1;stroke:none;stroke-width:1px;stroke-linecap:butt;stroke-linejoin:miter;stroke-opacity:1"
     x="383.79282"
     y="274.35843"
     id="text3510"
     sodipodi:linespacing="125%"><tspan
       sodipodi:role="line"
       id="tspan3512"
       x="383.79282"
       y="274.35843"
       style="font-style:normal;font-variant:normal;font-weight:bold;font-stretch:normal;font-size:13.75px;font-family:Arial;-inkscape-font-specification:'Arial Bold'">__me too__</tspan></text>
<text
     xml:space="preserve"
     style="font-style:normal;font-weight:normal;font-size:40px;line-height:125%;font-family:sans-serif;letter-spacing:0px;word-spacing:0px;fill:#000000;fill-opacity:1;stroke:none;stroke-width:1px;stroke-linecap:butt;stroke-linejoin:miter;stroke-opacity:1"
     x="388.70288"
     y="315.84506"
     id="text3514"
     sodipodi:linespacing="125%"><tspan
       sodipodi:role="line"
       id="tspan3516"
       x="388.70288"
       y="315.84506"
       style="font-style:italic;font-variant:normal;font-weight:bold;font-stretch:normal;font-size:13.75px;font-family:Arial;-inkscape-font-specification:'Arial Bold Italic'"> and italic text***</tspan></text>
<text
     font-size="6"
     id="text109-5"
     style="font-size:6px;font-family:CourierNewPS-BoldMT"
     x="72.328522"
     y="213.47128"><tspan
       style="font-style:normal;font-variant:normal;font-weight:bold;font-stretch:normal;font-size:7.5px;font-family:'Courier New';-inkscape-font-specification:'Courier New Bold'"
       id="tspan3486-3">(http://www.example.com)</tspan></text>
<text
     xml:space="preserve"
     style="font-style:normal;font-weight:normal;font-size:40px;line-height:125%;font-family:sans-serif;letter-spacing:0px;word-spacing:0px;fill:#000000;fill-opacity:1;stroke:none;stroke-width:1px;stroke-linecap:butt;stroke-linejoin:miter;stroke-opacity:1"
     x="156.85432"
     y="254.43748"
     id="text3515"
     sodipodi:linespacing="125%"><tspan
       sodipodi:role="line"
       id="tspan3517"
       x="156.85432"
       y="254.43748"
       style="font-style:normal;font-variant:normal;font-weight:bold;font-stretch:normal;font-size:7.5px;font-family:'Courier New';-inkscape-font-specification:'Courier New Bold'">sandwich.png)</tspan></text>
<text
     xml:space="preserve"
     style="font-style:normal;font-weight:normal;font-size:40px;line-height:125%;font-family:sans-serif;letter-spacing:0px;word-spacing:0px;fill:#000000;fill-opacity:1;stroke:none;stroke-width:1px;stroke-linecap:butt;stroke-linejoin:miter;stroke-opacity:1"
     x="286.58939"
     y="332.33594"
     id="text3519"
     sodipodi:linespacing="125%"><tspan
       sodipodi:role="line"
       id="tspan3521"
       x="286.58939"
       y="332.33594"
       style="font-style:italic;font-variant:normal;font-weight:normal;font-stretch:normal;font-size:7.5px;font-family:'Times New Roman';-inkscape-font-specification:'Times New Roman, Italic'">A. Pena and B. Thomas</tspan></text>
</svg>